<svg width="22" height="22" viewBox="0 0 22 22" fill="none" xmlns="http://www.w3.org/2000/svg">
<path d="M11 6C10.4 6 10 5.6 10 5V1C10 0.4 10.4 0 11 0C11.6 0 12 0.4 12 1V5C12 5.6 11.6 6 11 6ZM12 21V17C12 16.4 11.6 16 11 16C10.4 16 10 16.4 10 17V21C10 21.6 10.4 22 11 22C11.6 22 12 21.6 12 21ZM7.5 7.5C7.9 7.1 7.9 6.5 7.5 6.1L4.6 3.2C4.2 2.8 3.6 2.8 3.2 3.2C2.8 3.6 2.8 4.2 3.2 4.6L6 7.4C6.2 7.6 6.5 7.7 6.7 7.7C6.9 7.7 7.3 7.7 7.5 7.5ZM18.8 18.8C19.2 18.4 19.2 17.8 18.8 17.4L16 14.6C15.6 14.2 15 14.2 14.6 14.6C14.2 15 14.2 15.6 14.6 16L17.4 18.8C17.6 19 17.9 19.1 18.1 19.1C18.3 19.1 18.6 19 18.8 18.8ZM6 11C6 10.4 5.6 10 5 10H1C0.4 10 0 10.4 0 11C0 11.6 0.4 12 1 12H5C5.6 12 6 11.6 6 11ZM22 11C22 10.4 21.6 10 21 10H17C16.4 10 16 10.4 16 11C16 11.6 16.4 12 17 12H21C21.6 12 22 11.6 22 11ZM4.6 18.8L7.4 16C7.8 15.6 7.8 15 7.4 14.6C7 14.2 6.4 14.2 6 14.6L3.2 17.4C2.8 17.8 2.8 18.4 3.2 18.8C3.4 19 3.7 19.1 3.9 19.1C4.1 19.1 4.4 19 4.6 18.8ZM15.9 7.5L18.7 4.7C19.1 4.3 19.1 3.7 18.7 3.3C18.3 2.9 17.7 2.9 17.3 3.3L14.5 6.1C14.1 6.5 14.1 7.1 14.5 7.5C14.7 7.7 15 7.8 15.2 7.8C15.4 7.8 15.8 7.7 15.9 7.5Z" fill="#222222"/>
</svg>
